<svg width="90" height="76" viewBox="0 0 90 76" fill="none" xmlns="http://www.w3.org/2000/svg">
<g clip-path="url(#clip0_1022_1603)">
<path fill-rule="evenodd" clip-rule="evenodd" d="M29.4141 7.46338C29.0845 6.97266 28.7622 6.47461 28.5645 5.91797C28.4033 5.47852 28.3154 5.00977 28.3594 4.48975C28.1982 4.89258 28.0518 5.29541 27.9053 5.70557C27.312 7.39746 26.7114 9.45557 28.125 10.9277C28.5352 11.3599 29.0845 11.6089 29.6997 11.4331C30.2344 11.2793 30.6226 10.7813 30.5933 10.0195C30.5566 9.01611 29.9487 8.25439 29.4141 7.46338ZM26.9897 64.8486C28.2495 65.1416 33.0103 65.4712 34.9365 65.4712L37.3389 43.2202C36.7163 42.5537 36.2476 41.9019 35.9106 41.2573C34.8267 39.1699 35.0171 37.229 36.0132 35.4639C36.8701 33.9404 38.3423 32.6221 40.0562 31.5015C42.6636 29.8022 45.8643 28.5571 48.0981 27.854C49.2114 27.5024 50.4126 27.2095 51.665 26.9678C50.5225 26.9019 49.7681 26.8433 49.6509 26.8213C45.3662 26.8506 41.1987 27.3706 37.8589 28.418C35.8374 29.0479 32.9663 30.1611 30.6958 31.6479C29.4287 32.4756 28.374 33.3911 27.8247 34.3652C27.4146 35.0977 27.334 35.9033 27.7808 36.7603C28.0444 37.2583 28.4473 37.7856 29.0259 38.3276C29.48 38.6938 29.7437 39.2798 29.6777 39.9097L26.9897 64.8486ZM69.8071 43.9966C70.5103 44.4287 70.6494 45.4907 70.1148 46.3623C69.5801 47.2339 68.5693 47.5928 67.8662 47.1533C67.1631 46.7212 67.0239 45.6592 67.5586 44.7876C68.0933 43.9233 69.104 43.5645 69.8071 43.9966ZM63.9771 40.4736C64.2407 40.6348 64.292 41.0229 64.0942 41.3452C63.8965 41.6675 63.523 41.7993 63.2666 41.6382C63.0029 41.477 62.9517 41.0889 63.1494 40.7666C63.3398 40.4443 63.7134 40.3198 63.9771 40.4736ZM61.8164 47.0728C62.3291 47.3877 62.4316 48.1567 62.0361 48.7866C61.648 49.4165 60.9155 49.6729 60.4028 49.3579C59.8901 49.043 59.7876 48.2739 60.1831 47.644C60.5713 47.0142 61.3037 46.7578 61.8164 47.0728ZM73.4546 50.2368C73.9673 50.5518 74.0698 51.3208 73.6743 51.9507C73.2861 52.5806 72.5537 52.8442 72.041 52.5293C71.5283 52.2144 71.4258 51.4453 71.8213 50.8154C72.2095 50.1782 72.9419 49.9219 73.4546 50.2368ZM78.794 45.3223C79.3213 45.6519 79.4312 46.4429 79.0283 47.102C78.6255 47.7612 77.8711 48.0249 77.3364 47.6953C76.8091 47.3657 76.6992 46.5747 77.1021 45.9155C77.5049 45.2637 78.2666 45 78.794 45.3223ZM76.2451 40.0049C76.7725 40.3345 76.8823 41.1255 76.4795 41.7847C76.0767 42.4438 75.3223 42.7075 74.7876 42.3779C74.2603 42.0483 74.1504 41.2573 74.5532 40.5981C74.9634 39.9463 75.7178 39.6826 76.2451 40.0049ZM34.5483 69.0747L24.9609 69.5288C19.5117 69.7852 16.5308 67.9395 10.7593 68.2104C9.77783 68.2544 8.93555 67.4927 8.8916 66.5112C8.88428 66.416 8.8916 66.3281 8.89893 66.2402L11.8359 39.0454C11.2134 38.3789 10.7446 37.7271 10.4077 37.0825C9.32373 34.9951 9.51416 33.0542 10.5103 31.2891C10.8618 30.6592 11.2427 30.0806 11.6528 29.5386C10.3418 29.1797 9.3457 27.9785 8.52539 26.9019C8.26172 26.5576 8.00537 26.2061 7.75635 25.8545C8.17383 26.1768 8.60596 26.3672 9.06006 26.4697C9.63135 26.6016 10.2246 26.6162 10.8179 26.6089C11.77 26.6016 12.7441 26.5137 13.6011 27.0337C13.689 27.085 13.7622 27.1436 13.8354 27.2021C14.231 26.8652 14.6338 26.5503 15.0513 26.2573V26.1987C15.0952 25.1953 15.7031 24.4336 16.2451 23.6499C16.582 23.1592 16.9043 22.6611 17.1094 22.1118C17.2705 21.6724 17.3584 21.2036 17.3218 20.6836C17.4756 21.0864 17.6294 21.4966 17.7686 21.9067C18.0469 22.7124 18.3179 23.5986 18.3838 24.4629C18.9551 24.2285 19.541 24.0234 20.1343 23.833C20.127 22.9028 20.3833 21.9287 20.6397 21.0498C20.7642 20.6323 20.896 20.2222 21.0352 19.812C21.0205 20.3394 21.1304 20.8008 21.3135 21.2329C21.5405 21.7749 21.8848 22.2583 22.2437 22.7344C22.3608 22.8955 22.4854 23.0566 22.6099 23.2104C23.0713 23.1152 23.54 23.0273 24.0161 22.9541C23.606 22.9395 23.2324 22.7417 22.9248 22.4487C21.4453 21.0498 21.9434 18.9624 22.4487 17.2485C22.5732 16.8311 22.7051 16.4209 22.8442 16.0107C22.8296 16.5381 22.9395 16.9995 23.1226 17.4316C23.3496 17.9736 23.6938 18.457 24.0527 18.9331C24.624 19.6948 25.2686 20.4272 25.3564 21.4307C25.4224 22.1851 25.0562 22.7051 24.5361 22.8882C25.1074 22.8076 25.6787 22.7344 26.25 22.6758C26.3599 22.4707 26.5283 22.2656 26.77 22.0972C27.5903 21.5112 28.5645 21.5259 29.5166 21.4673C30.1099 21.4307 30.7031 21.3794 31.2598 21.2036C31.7065 21.0645 32.1314 20.8447 32.5195 20.4932C32.2998 20.8667 32.0654 21.2329 31.8311 21.5991C31.6626 21.8555 31.4868 22.1265 31.2964 22.3901C31.5161 22.3828 31.7358 22.3828 31.9556 22.3755C34.7754 22.1997 37.8003 22.1631 40.8032 22.2656C43.2642 22.3535 45.7178 22.5293 48.0469 22.8003C57.1362 23.4009 65.6616 24.5801 69.3237 26.0962C69.7339 26.2646 69.9829 26.4111 70.1074 26.543C74.0039 27.0117 77.6953 27.8687 80.6909 29.1064C81.3794 29.3921 81.7969 30.0513 81.7969 30.7544C83.0493 31.0254 84.2432 31.3916 85.3638 31.853C85.6787 31.9849 85.979 32.1313 86.2573 32.2852C86.2939 32.3071 86.3306 32.3291 86.3672 32.3511C88.103 33.3691 89.2236 34.9146 89.7217 36.6577C90.2197 38.3862 90.0952 40.2979 89.3701 42.0557C89.2749 42.2974 89.165 42.5244 89.0479 42.7588L84.0015 69.4409C83.855 70.21 83.2324 70.7739 82.5 70.8838L46.6406 75.9814C45.6665 76.1206 44.7583 75.4395 44.6191 74.4653C44.5972 74.2895 44.5972 74.1211 44.6191 73.9526L44.9194 71.9092C42.0264 72.1216 39.1699 72.2314 36.3208 72.4146C35.3394 72.4731 34.4897 71.7261 34.4238 70.7446C34.4165 70.6274 34.4238 70.5103 34.4385 70.3931L34.5483 69.0747ZM43.9746 68.313C44.1064 68.3057 44.2456 68.313 44.3701 68.335L44.6265 68.313C44.8975 68.291 45.1538 68.335 45.3882 68.4229L48.4863 47.2632C47.8784 46.6113 47.417 45.9668 47.0874 45.3296C46.0034 43.2422 46.1939 41.3013 47.1899 39.5361C48.0469 38.0127 49.519 36.6943 51.2329 35.5737C53.8403 33.8745 57.041 32.6294 59.2749 31.9263C61.355 31.2744 63.457 30.8789 65.5371 30.6152C66.936 30.4395 68.2837 30.3223 69.6021 30.2344C63.5376 29.2822 56.8726 29.5972 51.5405 31.2598C49.519 31.8896 46.648 33.0029 44.3774 34.4897C43.1104 35.3101 42.0557 36.2329 41.5063 37.207C41.0962 37.9395 41.0156 38.7451 41.4624 39.6021C41.7188 40.1001 42.1289 40.6274 42.7075 41.1694C43.1616 41.5356 43.4253 42.1216 43.3594 42.7515L40.5762 68.5693L43.9746 68.313ZM55.0269 46.9043L51.3428 73.2202L81.5625 68.9282L86.4258 41.792C86.4624 41.6016 86.5283 41.4185 86.6309 41.2427C86.7407 41.0522 86.8359 40.8618 86.9092 40.6714C87.5684 39.0747 87.334 36.2256 85.7153 35.2661C85.686 35.2515 85.6567 35.2368 85.6348 35.2222C85.481 35.1343 85.3125 35.0537 85.144 34.9805C77.6953 33.1421 59.502 35.2881 53.9063 41.2866C53.4961 42.019 53.4155 42.8247 53.8623 43.6816C54.4556 44.8535 55.2612 45.271 55.0269 46.9043ZM3.92578 10.8105C2.44629 8.91357 1.25244 6.87012 0 4.73145C0.849609 6.78955 1.71387 8.81836 2.88574 10.7959L3.92578 10.8105ZM7.55127 8.84033C6.89209 6.52588 6.06445 4.2334 5.07568 1.96289C6.2915 3.79395 7.28027 5.84473 8.15918 7.99805L7.55127 8.84033ZM1.67725 1.53076C3.25195 5.21484 2.85645 5.72754 3.69873 8.75244C3.84522 9.27979 3.9917 9.77051 4.31397 10.1367C4.49707 10.3418 4.73145 10.5176 5.04639 10.6274C6.37207 11.0889 7.00195 10.2759 7.11914 9.06006C7.09717 8.66455 6.92871 8.24707 6.65039 7.82959C6.28418 7.2876 5.71289 6.73096 5.00977 6.21826C3.23731 4.9292 2.7832 3.47168 1.67725 1.53076ZM8.9502 22.6831C8.35693 22.6685 7.76367 22.6465 7.19971 22.4927C6.75293 22.3755 6.31348 22.1704 5.91064 21.8335C6.15234 22.1924 6.39404 22.5513 6.64307 22.9028C7.68311 24.3604 9.02344 26.0303 11.0376 25.73C11.6309 25.6421 12.1436 25.3418 12.356 24.7339C12.5391 24.2139 12.356 23.606 11.7114 23.1885C10.8765 22.6465 9.90234 22.7051 8.9502 22.6831ZM7.25098 19.0723C6.65772 19.0283 6.06445 18.9771 5.50781 18.7939C5.06104 18.6475 4.64356 18.4277 4.25537 18.0762C4.4751 18.4497 4.70215 18.8159 4.93652 19.1821C5.90332 20.6909 7.15576 22.4268 9.18457 22.2217C9.77783 22.1631 10.3125 21.8848 10.5542 21.2915C10.7666 20.7788 10.6055 20.1636 9.99024 19.7168C9.17725 19.1309 8.20313 19.1455 7.25098 19.0723ZM5.30273 15.3003C4.70947 15.2856 4.11621 15.249 3.55225 15.0952C3.10547 14.9707 2.67334 14.7656 2.27051 14.4287C2.50488 14.7949 2.74658 15.1538 2.99561 15.5054C4.021 16.9702 5.34668 18.6621 7.36084 18.3765C7.9541 18.2959 8.47412 17.9956 8.69385 17.395C8.88428 16.875 8.70117 16.2671 8.07129 15.8423C7.23633 15.2783 6.25488 15.3296 5.30273 15.3003ZM3.52295 11.6016C2.92969 11.5283 2.34375 11.4478 1.79443 11.2354C1.3623 11.0669 0.944824 10.8252 0.578613 10.4517C0.776367 10.8325 0.98877 11.2134 1.20117 11.5942C2.09473 13.147 3.25928 14.9487 5.28809 14.8462C5.88867 14.8169 6.43066 14.5679 6.70166 13.9893C6.93604 13.4912 6.81152 12.8687 6.21826 12.3853C5.44189 11.7554 4.46777 11.7188 3.52295 11.6016ZM14.2969 19.9219C14.6338 19.4312 14.9561 18.9331 15.1611 18.3838C15.3223 17.9443 15.4102 17.4756 15.3735 16.9556C15.5273 17.3584 15.6812 17.7686 15.8203 18.1787C16.3989 19.8779 16.9849 21.936 15.5713 23.3936C15.1538 23.8257 14.6118 24.0674 13.9966 23.8916C13.4619 23.7378 13.0811 23.2324 13.1104 22.4707C13.147 21.4673 13.7549 20.7129 14.2969 19.9219ZM12.334 16.1938C12.6709 15.7031 12.9932 15.2051 13.1982 14.6558C13.3594 14.2163 13.4473 13.7476 13.4106 13.2275C13.5645 13.6304 13.7183 14.0405 13.8574 14.4507C14.436 16.1426 15.022 18.208 13.6011 19.6655C13.1836 20.0977 12.6416 20.3394 12.0264 20.1636C11.4917 20.0098 11.1108 19.5044 11.1401 18.7427C11.1841 17.7393 11.7993 16.9775 12.334 16.1938ZM10.4443 12.4365C10.7813 11.9458 11.1035 11.4478 11.3086 10.8984C11.4697 10.459 11.5576 9.99023 11.521 9.47022C11.6748 9.87305 11.8286 10.2832 11.9678 10.6934C12.5464 12.3853 13.1323 14.4507 11.7114 15.9082C11.2939 16.3403 10.752 16.582 10.1367 16.4062C9.60205 16.2524 9.22119 15.7471 9.25049 14.9854C9.28711 13.9819 9.90234 13.2275 10.4443 12.4365ZM8.43018 8.7085C8.73779 8.20313 9.03809 7.69043 9.21387 7.12646C9.35303 6.67969 9.41895 6.21094 9.35303 5.69092C9.52881 6.08643 9.69727 6.48193 9.8584 6.89209C10.5249 8.55469 11.2134 10.5835 9.86572 12.1143C9.47022 12.561 8.94287 12.8394 8.31299 12.6929C7.771 12.5684 7.36816 12.085 7.35352 11.3159C7.36084 10.3052 7.93213 9.52148 8.43018 8.7085ZM34.0064 9.36768C35.4053 7.41211 36.5039 5.31738 37.6685 3.12744C36.9141 5.22217 36.1304 7.2876 35.0464 9.31641L34.0064 9.36768ZM30.3003 7.55127C30.8569 5.21484 31.5894 2.88574 32.4756 0.571289C31.3403 2.45361 30.4395 4.54834 29.6558 6.73096L30.3003 7.55127ZM35.8521 0C34.4385 3.75 34.856 4.24805 34.1382 7.30957C34.0137 7.83691 33.8892 8.33496 33.5889 8.71582C33.4204 8.93555 33.1934 9.11133 32.8784 9.23584C31.5747 9.75586 30.9082 8.96484 30.7397 7.76367C30.7471 7.36816 30.8936 6.94336 31.1572 6.51855C31.5015 5.94727 32.0508 5.36865 32.7246 4.83398C34.4385 3.46436 34.834 1.98486 35.8521 0ZM31.04 17.7686C31.6333 17.7026 32.2192 17.6221 32.7686 17.417C33.208 17.2559 33.6182 17.0142 33.9917 16.6406C33.7866 17.0215 33.5815 17.4023 33.3618 17.7759C32.4609 19.3213 31.2817 21.1157 29.2529 20.9985C28.6523 20.9619 28.1104 20.7129 27.8467 20.1343C27.6123 19.6289 27.7441 19.0137 28.3374 18.5376C29.1211 17.9077 30.0952 17.8784 31.04 17.7686ZM32.8198 13.916C33.4131 13.8721 34.0063 13.8135 34.563 13.6304C35.0024 13.4839 35.4273 13.2642 35.8154 12.9053C35.5957 13.2788 35.3687 13.6523 35.1416 14.0186C34.1748 15.5273 32.9297 17.2705 30.9082 17.0728C30.3149 17.0142 29.7803 16.7432 29.5386 16.1499C29.3262 15.6372 29.48 15.022 30.0952 14.5752C30.8936 13.9746 31.875 13.9819 32.8198 13.916ZM34.4458 10.144C35.0317 10.0488 35.6177 9.93896 36.1523 9.70459C36.5772 9.52148 36.98 9.25781 37.3315 8.86963C37.1484 9.26514 36.958 9.65332 36.7603 10.0342C35.9326 11.6235 34.8486 13.4692 32.8125 13.4619C32.2119 13.4546 31.6626 13.2349 31.3623 12.6636C31.106 12.1729 31.2012 11.543 31.7725 11.0449C32.5342 10.3784 33.501 10.2979 34.4458 10.144ZM25.8398 15.1099C25.481 14.6338 25.1367 14.1504 24.9097 13.6084C24.7266 13.1763 24.6167 12.7148 24.6314 12.1875C24.4922 12.5977 24.3604 13.0078 24.2358 13.4253C23.7305 15.1465 23.2324 17.2266 24.7119 18.6255C25.144 19.0356 25.7007 19.2627 26.3086 19.0576C26.8359 18.8818 27.1948 18.3618 27.1289 17.6001C27.0557 16.604 26.4111 15.8716 25.8398 15.1099ZM27.5684 11.272C27.2095 10.7959 26.8652 10.3125 26.6382 9.77051C26.4551 9.33838 26.3452 8.87695 26.3599 8.34961C26.2207 8.75977 26.0889 9.16992 25.9644 9.5874C25.459 11.3086 24.9609 13.3887 26.4404 14.7876C26.8726 15.1978 27.4292 15.4248 28.0371 15.2124C28.5645 15.0366 28.9233 14.5166 28.8574 13.7549C28.7842 12.7661 28.1397 12.041 27.5684 11.272Z" fill="#F7CB46"/>
</g>
<defs>
<clipPath id="clip0_1022_1603">
<rect width="90" height="75.9668" fill="white"/>
</clipPath>
</defs>
</svg>
