<svg width="90" height="65" viewBox="0 0 90 65" fill="none" xmlns="http://www.w3.org/2000/svg">
<g clip-path="url(#clip0_1022_1625)">
<path d="M17.3527 24.1174C17.3444 24.0006 17.3361 23.8797 17.3319 23.7671C13.5327 24.1466 8.60756 21.8112 6.11787 19.0504C3.94095 16.6442 3.01097 13.4914 2.60645 9.19177C4.17866 9.12921 5.74671 9.23347 7.32309 9.6088C13.3534 11.0392 16.6605 16.0103 17.3194 21.8446C17.4362 19.2464 18.1326 17.057 19.2753 15.293C20.7683 12.9909 22.9994 11.4437 25.7018 10.6889C26.59 10.4429 27.5242 10.2844 28.4834 10.2093C29.2757 10.1509 29.9638 10.7431 30.0264 11.5355C30.0806 12.3279 29.4926 13.016 28.7002 13.0785C27.9079 13.1411 27.1614 13.262 26.4691 13.4538C24.4381 14.021 22.7784 15.1595 21.6816 16.8527C20.5556 18.5917 20.0051 20.9479 20.2219 23.9005L20.9476 27.8332L19.4463 30.5898L18.4579 29.6181L17.4987 27.7748C17.432 27.3536 17.3903 24.5511 17.3527 24.1174Z" fill="#F7CB46"/>
<path fill-rule="evenodd" clip-rule="evenodd" d="M5.57983 11.7773C10.3841 15.5265 11.8645 16.2188 15.2258 21.3191C10.4675 17.6116 9.23305 16.5732 5.57983 11.7773Z" fill="#F7CB46"/>
<path d="M10.3925 48.2765C10.0422 48.5267 9.67101 48.7519 9.29151 48.9521C9.05797 49.1272 8.84111 49.3191 8.63259 49.5192C7.48158 50.6702 6.76428 52.2675 6.76428 54.0357C6.76428 55.7956 7.47741 57.3928 8.63259 58.5522C9.78361 59.7032 11.3808 60.4163 13.1491 60.4163C14.1374 60.4163 15.0716 60.1911 15.9098 59.7908C16.1475 59.6448 16.3852 59.5114 16.6355 59.3821C17.0066 59.1402 17.3486 58.865 17.6614 58.5522C18.5788 57.6347 19.2169 56.4378 19.4379 55.0991C19.7507 56.2794 20.3721 57.3344 21.2062 58.1727C22.4364 59.4029 24.1462 60.1703 26.0354 60.1703C27.0947 60.1703 28.0914 59.9284 28.988 59.4988C29.2424 59.3445 29.4968 59.1986 29.7637 59.061C30.1599 58.7982 30.5269 58.5063 30.8646 58.1727C32.0949 56.9383 32.8622 55.2326 32.8622 53.3434C32.8622 51.4626 32.0991 49.7528 30.8646 48.5142C29.6302 47.2839 27.9246 46.5166 26.0354 46.5166C25.5224 46.5166 25.022 46.575 24.5424 46.6792C25.5266 45.5157 26.1188 44.0019 26.1188 42.3504H26.1105C26.1105 40.5197 25.389 38.864 24.2213 37.6713C23.0536 36.4786 21.4314 35.7321 19.6423 35.7321C18.7498 35.7321 17.8991 35.9156 17.1276 36.2492C17.3069 36.1074 17.4779 35.9531 17.6405 35.7905C18.5747 34.8563 19.2169 33.6344 19.4296 32.2666C19.7382 33.3592 20.322 34.335 21.1019 35.1149C22.2821 36.2951 23.9127 37.0249 25.7226 37.0249C26.7652 37.0249 27.7494 36.783 28.6252 36.3451C28.425 36.5036 28.2373 36.6704 28.058 36.8498C26.8486 38.0592 26.1063 39.7231 26.1063 41.5664C26.1063 43.4097 26.8528 45.0737 28.058 46.2831C29.2674 47.4925 30.9314 48.2348 32.7747 48.2348V48.2431C34.6138 48.2431 36.2819 47.4925 37.4913 46.2831C38.7007 45.0737 39.4472 43.4097 39.4472 41.5664C39.4472 39.7231 38.7007 38.0592 37.4913 36.8498C36.2819 35.6404 34.6179 34.898 32.7747 34.898C31.7112 34.898 30.7103 35.1441 29.8179 35.5861C30.0014 35.4402 30.1765 35.2817 30.3392 35.1149C31.5152 33.9347 32.2492 32.2999 32.2492 30.4942C32.2534 28.6884 31.5236 27.062 30.3392 25.8734C29.159 24.6932 27.5242 23.9551 25.7185 23.9551C23.9169 23.9551 22.2863 24.6849 21.0977 25.8734C20.1344 26.8368 19.4713 28.1046 19.2586 29.5225C18.9583 28.4632 18.3912 27.5124 17.6363 26.7575C16.4853 25.6065 14.8881 24.8934 13.1199 24.8934C11.36 24.8934 9.76275 25.6065 8.6034 26.7575C7.45239 27.9086 6.73926 29.5058 6.73926 31.274C6.73926 33.0339 7.45239 34.6311 8.6034 35.7905C8.86196 36.0491 9.14137 36.2826 9.44164 36.4953C8.59506 36.1074 7.65256 35.8906 6.66003 35.8906C4.81674 35.8906 3.15277 36.6371 1.94338 37.8465C0.74649 39.0559 0 40.724 0 42.5631C0 44.4064 0.74649 46.0704 1.95172 47.2798C3.16111 48.4892 4.82508 49.2315 6.66837 49.2315C8.50748 49.2315 10.1756 48.485 11.385 47.2798C12.3776 46.2872 13.0573 44.9819 13.27 43.5265C13.5077 44.886 14.1499 46.0996 15.0674 47.0379C16.2351 48.2306 17.8574 48.9771 19.6464 48.9771C20.076 48.9771 20.493 48.9354 20.8975 48.852C20.0635 49.807 19.4921 50.9955 19.292 52.3092C18.9917 51.2416 18.4245 50.2866 17.6614 49.5234C16.5104 48.3724 14.9131 47.6593 13.1449 47.6593C12.1649 47.6593 11.2265 47.8845 10.3925 48.2765ZM15.6554 37.1417C15.4511 37.3085 15.2509 37.4836 15.0674 37.6755C14.1082 38.6555 13.441 39.9483 13.2366 41.3954C12.9948 40.0234 12.3317 38.7931 11.385 37.8465C11.1056 37.5671 10.8053 37.3168 10.4842 37.0875C11.2891 37.4545 12.1857 37.6588 13.1324 37.6588C14.0248 37.663 14.8798 37.4753 15.6554 37.1417Z" fill="#F7CB46"/>
<path d="M25.9354 46.3365C25.8478 46.1822 25.7602 46.0237 25.6851 45.8652C25.6017 46.0362 25.51 46.203 25.4141 46.3657C25.585 46.349 25.7602 46.3365 25.9354 46.3365Z" fill="#F7CB46"/>
<path d="M25.927 38.6888C25.6351 38.6846 25.3473 38.6596 25.0637 38.6221C25.2472 38.8681 25.414 39.1309 25.5642 39.4019C25.6726 39.1559 25.7935 38.9182 25.927 38.6888Z" fill="#F7CB46"/>
<path d="M19.5756 34.7227C19.3754 35.0938 19.1502 35.4483 18.8875 35.7778C19.0626 35.7611 19.2419 35.7569 19.4213 35.7569C19.7048 35.7569 19.9801 35.7736 20.2595 35.8069C20.0009 35.4691 19.7716 35.1063 19.5756 34.7227Z" fill="#F7CB46"/>
<path d="M13.1865 38.5841C13.2824 38.7426 13.3784 38.9094 13.4659 39.0762C13.5785 38.8969 13.6995 38.7218 13.8246 38.5508C13.6161 38.5758 13.4034 38.5841 13.1865 38.5841Z" fill="#F7CB46"/>
<path fill-rule="evenodd" clip-rule="evenodd" d="M28.3458 26.6778C28.1957 26.6402 28.1039 26.4859 28.1415 26.3358C28.179 26.1857 28.3333 26.0939 28.4834 26.1315C29.1298 26.2899 29.5969 26.611 29.9055 27.0698C30.2099 27.516 30.3559 28.0873 30.3642 28.7671C30.3642 28.9214 30.2433 29.0465 30.089 29.0549C29.9347 29.0549 29.8054 28.9339 29.8013 28.7796C29.7887 28.2124 29.6761 27.7412 29.4343 27.3867C29.2049 27.0448 28.8462 26.8029 28.3458 26.6778Z" fill="#F7CB46"/>
<path fill-rule="evenodd" clip-rule="evenodd" d="M35.0057 38.3174C34.8556 38.2799 34.7638 38.1256 34.8014 37.9754C34.8389 37.8253 34.9932 37.7336 35.1433 37.7711C35.7897 37.9296 36.2568 38.2507 36.5654 38.7094C36.8699 39.1557 37.0158 39.727 37.0242 40.4068C37.0242 40.5611 36.9032 40.6862 36.7489 40.6945C36.5946 40.6945 36.4653 40.5736 36.4612 40.4193C36.4487 39.8521 36.3361 39.3808 36.0942 39.0264C35.8648 38.6844 35.5103 38.4467 35.0057 38.3174Z" fill="#F7CB46"/>
<path d="M26.4607 39.7852C26.2355 40.4357 26.1145 41.1363 26.1145 41.8662H26.1062C26.1062 43.626 26.8193 45.2233 27.9787 46.3785C29.1297 47.5295 30.7269 48.2468 32.4952 48.2468C33.5544 48.2468 34.5511 47.9882 35.4311 47.5336C35.6062 47.421 35.7855 47.3126 35.9774 47.2209C36.3527 46.9748 36.6989 46.6954 37.0116 46.3826C38.0125 45.3817 38.6798 44.0514 38.8424 42.5626C38.5255 43.4926 38 44.3225 37.3202 44.9981C37.0075 45.3109 36.6613 45.5944 36.286 45.8363C36.0983 45.9281 35.9148 46.0365 35.7397 46.1491C34.8556 46.6078 33.8589 46.8622 32.8038 46.8622C31.0355 46.8622 29.4425 46.1491 28.2873 44.9939C27.1279 43.8346 26.4148 42.2373 26.4148 40.4816H26.4231C26.4231 40.2481 26.4357 40.0145 26.4607 39.7852Z" fill="#F7CB46"/>
<path fill-rule="evenodd" clip-rule="evenodd" d="M10.8178 28.3047C10.9679 28.2672 11.0596 28.1129 11.0221 27.9627C10.9846 27.8126 10.8303 27.7209 10.6801 27.7584C10.0337 27.9169 9.56666 28.238 9.25805 28.6967C8.95362 29.143 8.80766 29.7143 8.79932 30.3941C8.79932 30.5484 8.92026 30.6735 9.07456 30.6818C9.22886 30.6818 9.35814 30.5609 9.36231 30.4066C9.37482 29.8394 9.48742 29.3682 9.7293 29.0137C9.95867 28.6717 10.3131 28.434 10.8178 28.3047Z" fill="#F7CB46"/>
<path fill-rule="evenodd" clip-rule="evenodd" d="M4.15785 39.9483C4.30798 39.9107 4.39973 39.7564 4.36219 39.6063C4.32466 39.4562 4.17036 39.3644 4.02023 39.402C3.37382 39.5604 2.90675 39.8815 2.59814 40.3403C2.29371 40.7865 2.14774 41.3578 2.1394 42.0376C2.1394 42.1919 2.26034 42.317 2.41465 42.3254C2.56895 42.3254 2.69823 42.2044 2.7024 42.0501C2.71491 41.483 2.82751 41.0117 3.06939 40.6572C3.29876 40.3153 3.65324 40.0734 4.15785 39.9483Z" fill="#F7CB46"/>
<path d="M19.5464 28.375C19.317 29.0423 19.1919 29.7596 19.1919 30.5019H19.1877C19.1877 31.0857 19.2669 31.6571 19.4087 32.1992C19.0876 33.0374 18.5914 33.7881 17.97 34.4136C17.6572 34.7264 17.3111 35.01 16.9357 35.2519C16.7481 35.3436 16.5646 35.4521 16.3894 35.5647C15.5053 36.0234 14.5086 36.2778 13.4535 36.2778C11.6853 36.2778 10.0922 35.5647 8.93703 34.4095C7.77768 33.2501 7.06455 31.6529 7.06455 29.893H7.07289C7.07289 29.6595 7.0854 29.4259 7.11042 29.1966C6.88522 29.8471 6.76428 30.5477 6.76428 31.2776H6.76011C6.76011 33.0374 7.47324 34.6347 8.63259 35.794C9.78361 36.945 11.3808 37.6623 13.1491 37.6623C14.2083 37.6623 15.2009 37.4038 16.085 36.9492C16.2601 36.8366 16.4395 36.7282 16.6313 36.6364C17.0066 36.3904 17.3528 36.111 17.6655 35.7982C18.5872 34.8766 19.2294 33.6713 19.4463 32.3243C19.7549 33.3961 20.3346 34.3553 21.1061 35.1268C22.2863 36.307 23.9169 37.0368 25.7268 37.0368C26.8111 37.0368 27.8286 36.7741 28.7294 36.307C28.9088 36.1902 29.0964 36.0818 29.2883 35.9859C29.6719 35.7356 30.0264 35.4479 30.3475 35.1268C31.3693 34.105 32.0532 32.7413 32.22 31.2192C31.8947 32.17 31.3568 33.0166 30.6645 33.713C30.3434 34.0341 29.9931 34.3219 29.6052 34.5721C29.4134 34.668 29.2257 34.7765 29.0464 34.8932C28.1414 35.3603 27.1239 35.623 26.0437 35.623C24.238 35.623 22.6032 34.8932 21.423 33.713C20.2386 32.5287 19.5088 30.8939 19.5088 29.0923H19.513C19.5088 28.8462 19.5255 28.6085 19.5464 28.375ZM19.5922 51.12C19.3504 51.8165 19.2211 52.5671 19.2211 53.347H19.2127C19.2127 53.9058 19.2795 54.4521 19.4087 54.9734C19.0835 55.8033 18.5914 56.5498 17.9783 57.167C17.6655 57.4798 17.3194 57.7634 16.9441 58.0052C16.7564 58.097 16.5729 58.2054 16.3978 58.318C15.5136 58.7767 14.5169 59.0311 13.4618 59.0311C11.6978 59.0311 10.1006 58.318 8.94537 57.1628C7.78602 56.0035 7.07289 54.4062 7.07289 52.6464H7.07706C7.07706 52.4128 7.08957 52.1793 7.11459 51.9499C6.88939 52.6005 6.76845 53.3011 6.76845 54.0309H6.76428C6.76428 55.7908 7.47741 57.388 8.63676 58.5474C9.78778 59.6984 11.385 60.4157 13.1532 60.4157C14.2125 60.4157 15.2092 60.1571 16.0892 59.7026C16.2643 59.59 16.4436 59.4815 16.6355 59.3898C17.0108 59.1437 17.3569 58.8643 17.6697 58.5515C18.583 57.6382 19.2211 56.4455 19.4463 55.111C19.759 56.2829 20.3804 57.3338 21.2187 58.172C22.4531 59.4065 24.1588 60.1696 26.0479 60.1696C27.1781 60.1696 28.2457 59.8944 29.1882 59.4065C29.3758 59.2855 29.5677 59.1729 29.772 59.0728C30.1765 58.8101 30.5435 58.5098 30.8772 58.1762C31.9448 57.1086 32.6621 55.6782 32.8331 54.0893C32.4911 55.0818 31.9281 55.9701 31.2066 56.6957C30.873 57.0294 30.5018 57.3338 30.1015 57.5924C29.9013 57.6925 29.7053 57.8051 29.5176 57.926C28.5751 58.4139 27.5075 58.6892 26.3774 58.6892C24.4882 58.6892 22.7825 57.926 21.5481 56.6916C20.3095 55.453 19.5464 53.7432 19.5464 51.8623H19.5547C19.5505 51.6163 19.563 51.3661 19.5922 51.12ZM13.6328 40.3272C13.4076 40.9944 13.2867 41.7076 13.2867 42.4541H13.2825C13.2825 44.2515 13.9956 45.8821 15.155 47.0664C16.306 48.2425 17.9032 48.9723 19.6715 48.9723C20.7307 48.9723 21.7233 48.7096 22.6074 48.2425C22.7825 48.1299 22.9619 48.0173 23.1537 47.9214C23.529 47.6711 23.8752 47.3834 24.1879 47.0623C25.1888 46.0405 25.8561 44.6768 26.0187 43.1588C25.7018 44.1055 25.1763 44.9563 24.4965 45.6485C24.1838 45.9696 23.8376 46.2574 23.4623 46.5076C23.2746 46.6035 23.0911 46.712 22.916 46.8287C22.0319 47.2958 21.0352 47.5585 19.9801 47.5585C18.2119 47.5585 16.6188 46.8287 15.4636 45.6527C14.3043 44.4683 13.5911 42.8377 13.5911 41.0403H13.5995C13.5953 40.7984 13.6078 40.5607 13.6328 40.3272ZM0.350308 40.7692C0.12511 41.4198 0.00417034 42.1204 0.00417034 42.8502H0C0 44.6101 0.713127 46.2074 1.87248 47.3667C3.02349 48.5177 4.62073 49.235 6.38895 49.235C7.44822 49.235 8.44493 48.9765 9.32487 48.5219C9.50002 48.4093 9.67935 48.3009 9.87118 48.2091C10.2465 47.9631 10.5927 47.6837 10.9054 47.3709C11.9021 46.37 12.5736 45.0355 12.7362 43.5509C12.4193 44.4808 11.8896 45.3107 11.214 45.9863C10.9013 46.2991 10.5551 46.5827 10.1798 46.8246C9.99212 46.9163 9.80863 47.0247 9.63347 47.1373C8.74936 47.5961 7.75265 47.8505 6.69756 47.8505C4.93351 47.8505 3.33627 47.1373 2.18109 45.9822C1.02173 44.8228 0.308605 43.2256 0.308605 41.4657H0.312775C0.312775 41.2321 0.329456 40.9986 0.350308 40.7692Z" fill="#F7CB46"/>
</g>
<g clip-path="url(#clip1_1022_1625)">
<path d="M76.3463 19.0499C76.4923 19.1959 76.6424 19.3335 76.7967 19.467C76.9677 19.6129 77.147 19.7547 77.3388 19.9007C77.6474 20.13 77.9727 20.3636 78.3355 20.6055C78.6775 20.8307 79.0445 21.0517 79.4449 21.256C79.7535 21.4145 80.1038 21.5563 80.4583 21.6981C80.696 21.794 80.9295 21.8857 81.0379 21.9316C84.4451 22.8491 87.1141 24.7508 88.6404 28.1913C90.1251 31.5401 90.4796 36.3485 89.2952 43.1378C89.2869 43.1795 89.2785 43.217 89.266 43.2587C88.899 44.3805 88.4903 45.4607 88.0441 46.4949C87.602 47.525 87.1224 48.5008 86.6178 49.4183C85.5002 51.4409 84.2157 53.2675 82.7144 54.8981C81.2131 56.5287 79.5032 57.9591 77.5474 59.1977C74.8283 60.9117 71.5045 62.4214 68.235 63.3139C65.2866 64.1187 62.3673 64.4273 59.936 63.9519C58.1386 63.6016 56.6206 62.8885 55.6239 61.971C54.9608 61.3621 54.5188 60.6532 54.3561 59.8858C54.1851 59.081 54.3186 58.2469 54.8232 57.4212C55.3862 56.4954 56.4371 55.5821 58.0761 54.7563C58.1053 54.7397 58.1386 54.7271 58.172 54.7146C61.2831 53.6053 64.0438 52.3709 66.4084 50.9905C68.748 49.6226 70.6955 48.1172 72.2093 46.449C73.9442 44.539 75.0076 42.2412 75.5956 39.7807C76.3129 36.7905 76.3213 33.5585 75.9668 30.4975C75.8834 29.7593 75.7583 29.0587 75.604 28.3873C75.4455 27.7034 75.2578 27.0611 75.0452 26.4648C74.5906 25.172 74.503 25.1136 73.719 24.5673C73.5605 24.4547 73.377 24.3254 73.156 24.1711C72.3887 23.1827 71.7714 22.6156 71.0375 21.2936L67.8138 22.8866L67.8305 22.9158C67.8346 22.9242 67.843 22.9367 67.8472 22.945C67.9181 23.0826 67.9931 23.2161 68.0724 23.3454C68.1599 23.4872 68.2559 23.6289 68.3601 23.7749C68.5269 24.0085 68.7062 24.2503 68.9064 24.5005C69.0983 24.7383 69.3068 24.976 69.5445 25.2137C69.728 25.3972 69.9448 25.5765 70.1617 25.7558C70.3077 25.8768 70.4536 25.9977 70.5203 26.0561C72.7264 27.4823 74.1902 29.4341 74.4863 32.224C74.7783 34.9347 73.9358 38.4253 71.5504 42.9751C71.5379 43.0043 71.5212 43.0293 71.5004 43.0544C70.9832 43.7675 70.4494 44.4389 69.8948 45.0728C69.3443 45.7025 68.7855 46.2864 68.2183 46.8202C66.9672 48.0004 65.6411 49.0013 64.2065 49.8187C62.7719 50.636 61.233 51.2616 59.5649 51.6911C57.2462 52.2917 54.548 52.6044 52.0249 52.4918C49.7521 52.3918 47.6085 51.9497 45.9946 51.0572C44.8019 50.3983 43.8844 49.5518 43.3881 48.6718C43.0545 48.088 42.9044 47.4874 42.9628 46.9036C43.0253 46.2947 43.3089 45.7317 43.8552 45.2605C44.4683 44.7308 45.4191 44.3222 46.7661 44.1095C46.7911 44.1053 46.8162 44.1011 46.8412 44.1011C49.2975 44.0219 51.537 43.7758 53.5262 43.3338C55.4946 42.8959 57.2211 42.2703 58.6724 41.4321C60.3364 40.4729 61.6125 39.0842 62.5925 37.4745C63.7811 35.5186 64.5234 33.2291 64.9696 30.9771C65.0781 30.4349 65.149 29.9095 65.1907 29.3965C65.2324 28.8752 65.2449 28.379 65.2324 27.9035C65.2032 26.8818 65.1573 26.8234 64.7236 26.2563C64.636 26.1395 64.5359 26.006 64.415 25.8476L63.7227 24.9092L63.3057 25.1136H63.3015C62.7719 25.3721 62.1296 25.1553 61.8711 24.6215L60.2405 21.3019C59.9861 20.7806 60.1946 20.1467 60.7159 19.8798L73.965 13.0822C74.0067 13.0571 74.0484 13.0363 74.0943 13.0154C74.6406 12.7819 75.2704 13.0363 75.4997 13.5826L77.0427 17.19C77.2638 17.7112 77.0427 18.3159 76.5298 18.5703L76.0877 18.7872C76.1294 18.8289 76.1711 18.8706 76.3171 19.0124C76.3254 19.0291 76.338 19.0374 76.3463 19.0499Z" fill="#F7CB46"/>
<path d="M66.6837 23.4375L64.878 24.33L65.441 25.0931C65.5494 25.2391 65.6495 25.3684 65.7329 25.4851C66.3877 26.3401 66.4585 26.436 66.4961 27.8664C66.5128 28.4044 66.5003 28.9507 66.4544 29.497C66.4085 30.0517 66.3293 30.623 66.2125 31.2152C65.7413 33.5923 64.9489 36.0194 63.6728 38.1254C62.5926 39.9062 61.1706 41.4492 59.3064 42.5251C57.7425 43.4259 55.8993 44.0973 53.8058 44.5644C51.7456 45.0232 49.4436 45.2775 46.9247 45.361C45.8488 45.5361 45.1231 45.8364 44.6852 46.2117C44.3975 46.4577 44.2515 46.7372 44.2223 47.0249C44.189 47.3377 44.2849 47.688 44.4892 48.0466C44.8729 48.7264 45.6194 49.402 46.6078 49.9483C48.0424 50.7407 49.9941 51.1369 52.0834 51.2286C54.4813 51.3329 57.0503 51.0368 59.2522 50.4654C60.8119 50.0609 62.2465 49.4771 63.5894 48.7139C64.9322 47.9507 66.1791 47.0082 67.3593 45.8948C67.9015 45.3818 68.4311 44.8313 68.9524 44.235C69.4612 43.6511 69.9616 43.0214 70.4621 42.3333C72.7015 38.0504 73.4981 34.8142 73.2353 32.3495C72.9851 29.9891 71.7299 28.3251 69.8365 27.1074C69.7948 27.0865 69.7531 27.0574 69.7156 27.024C69.5237 26.8572 69.4403 26.7863 69.3611 26.7196C69.1151 26.5152 68.869 26.3109 68.6605 26.1023C68.3852 25.8271 68.1475 25.556 67.9307 25.285C67.7263 25.0306 67.5303 24.7637 67.3427 24.5051C67.2217 24.3383 67.1091 24.1673 67.0049 24.0005C66.9006 23.8337 66.8089 23.6669 66.7255 23.5084V23.5042L66.6837 23.4375Z" fill="#FEDA00"/>
<path d="M74.4696 19.5918L73.1434 20.2465C72.693 21.5102 73.5229 22.094 74.1527 22.7904C74.3528 22.9364 74.5322 23.0615 74.6865 23.1699C75.875 23.9998 76.0001 24.0874 76.6382 25.9015C76.8801 26.5854 77.0844 27.2861 77.2512 28.0034C77.4222 28.7332 77.5557 29.4963 77.6474 30.3012C78.0186 33.5332 78.0019 36.9654 77.2345 40.1766C76.584 42.8956 75.3954 45.452 73.452 47.5914C71.8214 49.3888 69.7363 51.0028 67.2508 52.454C64.8028 53.8845 61.9628 55.1564 58.7766 56.2949C57.4713 56.958 56.6664 57.6419 56.2619 58.3009C55.9992 58.7346 55.9241 59.1474 56.0034 59.5269C56.0909 59.9398 56.3578 60.3485 56.7665 60.7238C57.538 61.4328 58.7683 61.9958 60.2571 62.2835C62.4173 62.7047 65.0738 62.417 67.7846 61.6747C70.8956 60.8239 74.0567 59.3935 76.6423 57.7587C78.4731 56.6035 80.0704 55.2648 81.4674 53.7427C82.8687 52.2163 84.0781 50.5023 85.1332 48.5923C85.6169 47.7124 86.0715 46.7907 86.4885 45.819C86.8972 44.864 87.285 43.8506 87.6395 42.7705C88.7447 36.3732 88.4361 31.911 87.089 28.8666C85.8004 25.9516 83.5151 24.3376 80.5917 23.5536C80.5291 23.5411 80.4665 23.5244 80.404 23.4994C80.0912 23.366 79.9578 23.3117 79.8243 23.2575C79.424 23.0949 79.0278 22.9364 78.6733 22.7571C78.2104 22.5194 77.7934 22.2692 77.4013 22.0148C77.0344 21.7729 76.6757 21.5143 76.3296 21.2599C76.1044 21.0931 75.8917 20.9263 75.6915 20.7553C75.4913 20.5843 75.3037 20.4134 75.1369 20.2424L75.1327 20.2382C75.1077 20.2132 74.9909 20.0964 74.8825 19.988C74.7115 19.8087 74.5655 19.6627 74.4696 19.5918Z" fill="#FEDA00"/>
<path d="M63.3224 22.7077L64.3358 22.2072C64.5318 22.0446 64.7528 21.9028 64.9864 21.7944C65.174 21.7068 65.37 21.6401 65.5702 21.5984L74.6699 17.0986L73.9776 15.4805L62.6301 21.2981L63.3224 22.7077Z" fill="#FDF2B4"/>
<path d="M80.0245 28.7792C79.9203 28.3163 80.2164 27.8576 80.6793 27.7533C81.1422 27.6491 81.6009 27.9452 81.7052 28.4081C83.5193 36.5986 82.2848 42.7749 78.9736 47.5874C75.6874 52.3667 70.3869 55.7446 64.0188 58.3844C63.5809 58.5679 63.0763 58.3594 62.8928 57.9174C62.7093 57.4795 62.9178 56.9749 63.3599 56.7914C69.4527 54.2683 74.4947 51.0738 77.5557 46.6158C80.6 42.191 81.726 36.4527 80.0245 28.7792Z" fill="#F7CB46"/>
<path d="M68.1807 30.7689C68.214 30.4228 68.5185 30.1684 68.8646 30.1976C69.2107 30.231 69.4651 30.5354 69.4359 30.8815C68.8729 37.0078 66.6335 41.0488 63.2472 43.6719C59.8859 46.2742 55.432 47.4503 50.3942 47.8715C50.0481 47.9007 49.7394 47.6421 49.7103 47.2918C49.6811 46.9457 49.9396 46.6371 50.2899 46.6079C55.1067 46.2033 59.3396 45.1024 62.4757 42.6711C65.5867 40.2606 67.651 36.5073 68.1807 30.7689Z" fill="#F7CB46"/>
</g>
<g clip-path="url(#clip2_1022_1625)">
<path fill-rule="evenodd" clip-rule="evenodd" d="M42.2289 8.71634C43.8261 8.91235 45.5652 8.54119 47.4001 7.55282L47.7546 5.74706C45.7362 2.18143 42.3207 0.338138 36.699 1.19723L34.4888 1.43077C36.1069 4.78789 38.1003 8.21173 42.2206 8.71634H42.2289Z" fill="#F7CB46"/>
<path fill-rule="evenodd" clip-rule="evenodd" d="M37.0576 2.63965C40.7317 3.9116 43.1129 4.41621 46.199 6.80998C42.5625 5.6131 40.2521 4.82907 37.0576 2.63965Z" fill="#537918"/>
<path fill-rule="evenodd" clip-rule="evenodd" d="M47.2166 8.00255H47.2374C47.1316 8.79313 47.0843 9.59043 47.0957 10.388L49.0515 10.4255C49.0108 8.94438 49.2195 7.46694 49.6687 6.055C50.2135 4.3827 51.1818 2.8799 52.4796 1.69283C52.583 1.60893 52.6682 1.50472 52.7299 1.38664C52.7916 1.26856 52.8284 1.13911 52.8382 1.00625C52.8479 0.873386 52.8304 0.739936 52.7866 0.614119C52.7428 0.488302 52.6737 0.372782 52.5836 0.274675C52.4935 0.176568 52.3842 0.0979518 52.2626 0.0436699C52.1409 -0.010612 52.0094 -0.0394101 51.8762 -0.0409504C51.743 -0.0424907 51.6109 -0.0167406 51.488 0.0347137C51.3651 0.086168 51.2541 0.162237 51.1617 0.258234C49.6193 1.67127 48.4698 3.46021 47.8255 5.4503C47.7379 5.7172 47.6545 5.99244 47.5836 6.28437L47.2416 8.03591L47.2166 8.00255Z" fill="#F7CB46"/>
<path fill-rule="evenodd" clip-rule="evenodd" d="M44.5767 9.87083C34.1301 6.58878 28.3583 18.6035 33.7797 28.1202C35.402 30.9686 37.3662 33.9045 40.4106 36.5693C43.3298 38.6545 45.8612 38.3584 48.2174 37.0739C50.0941 37.9622 52.075 38.325 54.206 37.516C57.3421 36.3399 60.5324 31.6775 62.0379 28.8167C65.32 22.532 66.4376 14.4749 59.1187 10.5464C57.0919 9.47048 54.5939 9.17439 51.4286 9.87083C49.196 10.556 46.8093 10.556 44.5767 9.87083Z" fill="#F7CB46"/>
<path fill-rule="evenodd" clip-rule="evenodd" d="M36.9242 24.3545C37.1105 24.2924 37.314 24.3066 37.4898 24.3942C37.6657 24.4817 37.7997 24.6354 37.8625 24.8216C38.278 26.0488 38.8938 27.1987 39.6849 28.2246C40.5099 29.2785 41.4546 30.233 42.4999 31.0688C42.5755 31.1304 42.6382 31.2063 42.6844 31.2921C42.7307 31.378 42.7596 31.4721 42.7694 31.5691C42.7793 31.6661 42.77 31.7641 42.742 31.8575C42.714 31.9509 42.6679 32.0379 42.6062 32.1135C42.5446 32.189 42.4687 32.2517 42.3829 32.298C42.2971 32.3442 42.2029 32.3731 42.1059 32.383C42.0089 32.3929 41.9109 32.3835 41.8175 32.3555C41.7241 32.3275 41.6372 32.2814 41.5616 32.2198C40.4246 31.3133 39.3998 30.2745 38.5089 29.1254C37.6185 27.9697 36.9252 26.6747 36.4571 25.2929C36.3949 25.1065 36.4092 24.9031 36.4967 24.7272C36.5843 24.5513 36.738 24.4173 36.9242 24.3545Z" fill="white"/>
</g>
<defs>
<clipPath id="clip0_1022_1625">
<rect width="39.4472" height="51.2451" fill="white" transform="translate(0 9.1748)"/>
</clipPath>
<clipPath id="clip1_1022_1625">
<rect width="47.0455" height="51.2451" fill="white" transform="translate(42.9543 12.9277)"/>
</clipPath>
<clipPath id="clip2_1022_1625">
<rect width="51.2451" height="38.3879" fill="white" transform="translate(31.6946)"/>
</clipPath>
</defs>
</svg>
