<svg width="90" height="70" viewBox="0 0 90 70" fill="none" xmlns="http://www.w3.org/2000/svg">
<g clip-path="url(#clip0_1022_1601)">
<path fill-rule="evenodd" clip-rule="evenodd" d="M70.1362 4.27395C70.9409 4.16602 71.6748 4.47996 72.0564 6.32268L72.2823 6.26221C73.3463 5.96813 73.8928 5.81713 74.3955 6.12158C74.9377 6.45592 75.0085 7.03758 75.1368 8.23535C75.3156 8.2009 75.4822 8.16978 75.6308 8.13885C76.5369 7.95867 77.0015 7.87008 77.4538 8.15221C77.928 8.45086 78.0349 8.9332 78.2476 9.91125L78.3158 10.2157C78.4965 10.1589 78.6761 10.0988 78.8546 10.0354C79.7265 9.74373 80.1784 9.59115 80.6456 9.84674C81.1596 10.1259 81.2406 10.6284 81.4147 11.6796L81.4554 11.9153C81.6437 11.8649 81.8139 11.8148 81.9635 11.7703C82.7125 11.5562 83.1159 11.439 83.5631 11.6195C84.0946 11.831 84.2869 12.2813 84.7088 13.2527L84.8257 13.5218L88.1269 14.0846C88.2976 14.1138 88.4499 14.2092 88.5506 14.3501C88.6513 14.491 88.6922 14.666 88.6644 14.837C88.6552 14.8888 88.6402 14.9394 88.6196 14.9878C87.4488 17.6756 86.2084 20.3326 84.8999 22.9562H69.811C69.3534 22.2086 68.727 21.561 67.9493 21.0853C65.405 19.5279 62.1703 20.3748 60.5881 22.9562H52.8191C53.8642 20.9528 54.9523 18.9722 56.0825 17.0156C59.0636 11.8521 62.3392 6.83367 65.8248 2.01445C66.0104 1.75395 66.3525 1.67607 66.6339 1.8065L68.3487 2.61984C68.5795 2.7283 68.7154 2.95172 68.7257 3.19078C68.8189 4.35814 68.9147 4.61479 69.0108 4.6067C69.1035 4.60002 69.262 4.53973 69.4204 4.47908C69.6437 4.39242 69.8722 4.30875 70.1362 4.27395ZM4.5907 25.7068V18.8042C4.5907 18.2665 4.98937 17.833 5.4842 17.833H26.8799C27.3709 17.833 27.7734 18.2665 27.7734 18.8042C27.7734 18.8376 27.7734 18.871 27.7696 18.9002L27.7191 24.047H86.4049C88.3942 24.047 90 26.4848 90 28.3395V33.4127C90 35.7789 88.074 37.7054 85.7076 37.7054H82.8935L80.4375 65.6376C80.3653 66.5532 79.9692 67.3993 79.3517 68.0182L79.3556 68.0221C78.7205 68.657 77.8634 69.0506 76.8825 69.0506H31.2908C31.2395 69.0506 31.1887 69.0497 31.1379 69.0474L20.8858 69.0476C20.8587 69.0516 20.8281 69.0516 20.8014 69.0516C20.7707 69.0516 20.7439 69.0516 20.7171 69.0476H0.893496C0.398848 69.0476 0 68.6139 0 68.0764V33.9639C0 33.7263 0.0768164 33.5095 0.210938 33.3387L4.5907 25.7068ZM11.1973 43.4174C11.2322 43.579 11.2714 43.7384 11.314 43.8966C11.3558 43.7386 11.3943 43.579 11.4286 43.4174C12.3221 47.5606 15.8312 50.5742 15.8312 53.0167C15.8312 54.3171 15.3977 55.43 14.5348 56.3595C13.6682 57.289 12.6327 57.7559 11.4286 57.7559C11.3897 57.7559 11.3514 57.7552 11.3131 57.7543C11.2748 57.7552 11.2361 57.7559 11.1973 57.7559C9.99703 57.7559 8.96537 57.289 8.09859 56.3595C7.23182 55.43 6.80238 54.3171 6.80238 53.0167C6.80238 50.5575 10.3152 47.5813 11.1973 43.4174ZM21.6949 34.981V67.1092H30.5501L30.4887 34.981H21.6949ZM19.9078 67.1092V34.981H1.7833V67.1092H19.9078ZM24.4331 24.5106H25.9365L25.9826 19.7712H6.3777V24.5106H7.44768V26.4904H6.26273L6.20525 26.5904L2.61545 33.0428H20.3335L25.1541 26.4946H24.4331V24.5106ZM20.6441 24.5106H22.5884V26.4904H20.6441V24.5106ZM16.859 24.5106H18.8033V26.4904H16.859V24.5106ZM13.0737 24.5106H15.0182V26.4904H13.0737V24.5106ZM9.28477 24.5106H11.2291V26.4904H9.28477V24.5106ZM26.6498 27.5449L22.6078 33.0428H29.7754L26.7277 27.5402L26.6832 27.6008L26.6498 27.5449ZM34.6461 17.8114L46.6404 17.811C46.7427 17.811 46.826 17.8944 46.826 17.9967L46.3521 22.892H34.9334L34.4619 18.0141C34.4574 17.9652 34.4724 17.9166 34.5037 17.8789C34.535 17.8411 34.5799 17.8173 34.6287 17.8126L34.6461 17.8114ZM34.7068 1.68205C34.4855 1.68191 34.2734 1.59395 34.1169 1.4375C33.9604 1.28104 33.8725 1.06888 33.8723 0.847617C33.8725 0.626354 33.9604 0.414194 34.1169 0.257738C34.2734 0.101281 34.4855 0.0133233 34.7068 0.0131836H38.1136C38.177 0.00444129 38.241 3.65351e-05 38.305 0L42.9096 0C42.9743 0 43.0386 0.00457031 43.1017 0.0131836H47.5741C47.8123 0.0131836 48.0268 0.113203 48.179 0.273164L50.3084 2.40223C50.4616 2.55928 50.5466 2.77034 50.5452 2.98969C50.5438 3.20904 50.4561 3.419 50.301 3.5741C50.1459 3.72919 49.9359 3.81692 49.7165 3.81828C49.4972 3.81964 49.2861 3.73452 49.1291 3.58137L47.2293 1.68205H44.3438V6.14197C44.5273 6.1473 44.7017 6.22273 44.8312 6.35273C44.8983 6.41939 44.9516 6.49869 44.9878 6.58603C45.0241 6.67338 45.0427 6.76705 45.0425 6.86162V10.6766C45.2609 10.6894 45.4692 10.7056 45.6866 10.7341C48.7786 11.1396 51.6941 13.6522 51.6941 16.9267L51.6816 17.2819L51.6449 17.6389L50.8588 22.892H49.5425C49.8227 20.9529 50.0674 19.0427 50.2485 17.1969L50.2564 16.9267C50.2564 14.3856 47.8804 12.4659 45.5055 12.1565L44.7783 12.1122H37.0825C36.806 12.1122 36.5307 12.1271 36.2566 12.1667L36.2435 12.1679C33.5661 12.5286 30.8948 14.6902 30.8948 17.5581C30.9013 17.7768 30.9118 17.9457 30.9322 18.1635L31.6522 22.892H30.1989L29.5077 18.3352C29.4901 18.1981 29.4759 18.0682 29.4678 17.9464C29.4584 17.8172 29.4535 17.6877 29.4532 17.5581C29.4532 13.9572 32.6645 11.1916 36.0664 10.7446L36.0796 10.7427V6.86162C36.0796 6.66439 36.161 6.48439 36.2918 6.35484C36.4269 6.22048 36.6096 6.14503 36.8002 6.14496H36.8856V1.68205H34.7068ZM42.9096 1.68205H38.3307V6.13072H42.9096V1.68205ZM43.6048 7.5825H37.521V10.6567H43.6048V7.5825ZM48.3013 35.8813V57.3618H40.7881V35.8813H48.3013ZM67.0755 35.8813V57.3618H59.5624V35.8813H67.0755ZM64.3556 6.36504C67.8669 8.81666 71.2462 10.9761 74.706 12.9665C78.1592 14.9495 81.7072 16.7681 85.5717 18.5469C86.0854 17.4462 86.5883 16.3404 87.0803 15.2299L84.2572 14.7451C84.1505 14.7278 84.0499 14.6839 83.9647 14.6174C83.8796 14.5509 83.8126 14.464 83.77 14.3647C83.5984 13.976 83.5504 13.8633 83.5068 13.7677C83.2335 13.1328 83.1059 12.8398 83.0805 12.8287C83.0498 12.8146 82.7958 12.8871 82.3213 13.0231C82.0048 13.1124 81.6182 13.2249 81.1341 13.3413C81.1088 13.3479 81.0796 13.3557 81.0505 13.3638C80.6955 13.4274 80.3514 13.197 80.2867 12.8378C80.2311 12.5209 80.1774 12.2037 80.1257 11.8862C80.0218 11.2642 80.067 11.0145 80.0204 10.9912C79.9845 10.974 79.7848 11.0992 79.267 11.2737C78.8556 11.4147 78.4413 11.5466 78.0242 11.6694L78.024 11.6696L77.9948 11.6773C77.827 11.718 77.6498 11.6904 77.5022 11.6006C77.3547 11.5108 77.2487 11.3661 77.2077 11.1983C77.1277 10.8611 77.0507 10.5232 76.9767 10.1846C76.841 9.56215 76.7784 9.26086 76.7675 9.25471C76.7559 9.24451 76.4631 9.30516 75.8925 9.41766C75.5859 9.47725 75.2113 9.55072 74.7183 9.63369C74.6974 9.63932 74.6712 9.64195 74.6501 9.64758C74.5645 9.65762 74.4777 9.65069 74.3948 9.62718C74.3119 9.60366 74.2344 9.56403 74.1668 9.51054C74.0992 9.45706 74.0428 9.39077 74.0009 9.31547C73.9589 9.24017 73.9322 9.15734 73.9223 9.07172L73.8494 8.41465C73.7626 7.62223 73.7212 7.23445 73.7212 7.23445C73.7044 7.22109 73.3375 7.32375 72.6362 7.51623C72.3727 7.58689 72.0728 7.67162 71.7247 7.76039C71.6913 7.76953 71.6576 7.77832 71.6275 7.78201C71.268 7.82912 70.9404 7.57617 70.8945 7.22109C70.708 5.8057 70.5115 5.54027 70.3165 5.56559C70.2046 5.58211 70.046 5.6424 69.8873 5.70305C69.6431 5.79516 69.399 5.88762 69.1221 5.90801C68.3285 5.9727 67.6833 5.57209 67.4629 3.64588L66.575 3.22506C65.8189 4.26008 65.079 5.30687 64.3556 6.36504Z" fill="#F7CB46"/>
</g>
<defs>
<clipPath id="clip0_1022_1601">
<rect width="90" height="69.0516" fill="white"/>
</clipPath>
</defs>
</svg>
