<svg width="90" height="70" viewBox="0 0 90 70" fill="none" xmlns="http://www.w3.org/2000/svg">
<g clip-path="url(#clip0_1022_1624)">
<path d="M1.29271 44.2928C0.430903 43.4309 0 42.2983 0 41.1697C0 40.0412 0.430903 38.9085 1.29271 38.0467C2.15452 37.1849 3.28718 36.754 4.41573 36.754C5.54429 36.754 6.67695 37.1849 7.53876 38.0467C7.57159 38.0795 7.61263 38.1206 7.64956 38.1616L14.1008 31.6406C14.0474 31.5832 13.99 31.5257 13.9366 31.46C13.8299 31.3328 13.7232 31.1933 13.6165 31.0373L13.6083 31.025C13.001 30.1181 12.9189 29.2317 13.0995 28.374C13.2718 27.5327 13.6904 26.7324 14.1008 25.9527L14.109 25.9404C14.1911 25.7844 14.2732 25.6285 14.3634 25.4438C14.4455 25.2756 14.5317 25.1114 14.6179 24.9513C14.7123 24.779 14.7985 24.6189 14.8805 24.4753C14.9667 24.3276 15.057 24.1675 15.1637 23.9993C15.2663 23.8351 15.3648 23.6751 15.4674 23.5232C15.6479 23.2524 15.8901 22.8953 16.124 22.5506L16.1281 22.5424C17.2443 20.8926 18.2046 19.4727 18.9926 17.3839C19.1034 17.0966 19.206 16.8093 19.3045 16.5221C19.4071 16.2348 19.5015 15.9475 19.5958 15.6602C19.6943 15.3566 19.7846 15.0693 19.8708 14.7861C19.9488 14.5276 20.0309 14.2444 20.117 13.9407C20.7203 11.8314 21.2825 9.89435 21.9638 8.17074C22.645 6.43481 23.4411 4.92049 24.504 3.66882C25.5998 2.37611 26.9499 1.38708 28.6982 0.7633C30.4382 0.14362 32.5681 -0.119026 35.2438 0.0410239C35.5598 0.0615431 35.8676 0.0861662 36.1713 0.118997C36.4749 0.151828 36.7786 0.19697 37.0741 0.246216C37.3696 0.295462 37.661 0.352916 37.9441 0.418577C38.2273 0.484239 38.5022 0.554004 38.7649 0.631977C39.3764 0.812546 39.9837 1.03826 40.5747 1.2968C41.1656 1.55945 41.7484 1.85903 42.3188 2.19965C42.881 2.53616 43.4392 2.90961 43.9932 3.3282C44.5431 3.74679 45.0807 4.19822 45.606 4.69478C45.6347 4.72351 45.6634 4.75224 45.6922 4.77686L45.7086 4.79327C46.1969 5.31446 46.6443 5.84796 47.0587 6.39377C47.4773 6.94369 47.8549 7.50591 48.1914 8.07224C48.532 8.64678 48.8357 9.23363 49.0984 9.82458C49.361 10.4196 49.5826 11.0188 49.7632 11.6303C49.8371 11.8847 49.9109 12.1556 49.9766 12.4428C50.0422 12.726 50.0997 13.0215 50.1489 13.3211C50.1982 13.6165 50.2392 13.9161 50.2721 14.2198C50.3049 14.5235 50.3336 14.8354 50.35 15.1514C50.5101 17.823 50.2474 19.957 49.6278 21.6929C49.004 23.4411 48.0149 24.7913 46.7222 25.887C45.4706 26.9499 43.9521 27.7461 42.2203 28.4273C40.4967 29.1044 38.5597 29.6708 36.4503 30.274C36.1713 30.3561 35.884 30.4382 35.5926 30.5244L35.5762 30.5285C35.3012 30.6105 35.0222 30.7008 34.7349 30.7911C34.4641 30.8773 34.185 30.9717 33.8977 31.0743C33.6146 31.1728 33.3191 31.2795 33.0113 31.3944C31.9648 31.7883 31.0907 32.2234 30.2699 32.6994C29.4533 33.1754 28.6817 33.6966 27.8528 34.2548L27.7912 34.2958C27.4219 34.5461 27.0525 34.7965 26.8761 34.9155C26.7283 35.014 26.5724 35.1125 26.4123 35.211C26.2482 35.3136 26.084 35.4079 25.924 35.5023C25.7721 35.5885 25.6039 35.6829 25.4315 35.7732C25.2715 35.8594 25.1155 35.9414 24.9596 36.0194C24.8816 36.0563 24.7913 36.1056 24.6887 36.1589L24.4507 36.2821C23.671 36.6883 22.8707 37.1069 22.0294 37.2834C21.1676 37.4599 20.2771 37.3819 19.366 36.7663C19.2142 36.6637 19.0747 36.5529 18.9474 36.4298C18.8777 36.3641 18.812 36.2944 18.7463 36.2246L12.2377 42.7333C12.2992 42.7866 12.3485 42.8359 12.3936 42.881C13.2554 43.7428 13.6863 44.8755 13.6863 46.0041C13.6863 47.1326 13.2554 48.2653 12.3936 49.1271C11.5318 49.9889 10.3991 50.4198 9.27058 50.4198C8.14202 50.4198 7.00936 49.9889 6.14755 49.1271C5.63457 48.6141 5.27344 48.0067 5.06414 47.3583C4.87536 46.7756 4.81381 46.16 4.87536 45.5567C4.2721 45.6183 3.65652 45.5567 3.07378 45.368C2.41716 45.1669 1.80569 44.8057 1.29271 44.2928ZM15.8449 26.876C15.5577 27.426 15.2622 27.9964 15.1186 28.5299C14.9831 29.0347 14.9831 29.5148 15.2622 29.9334C15.4428 30.2043 15.6315 30.3602 15.8326 30.4587C16.0419 30.5654 16.2799 30.6188 16.5426 30.6762C16.5508 30.6762 16.5836 30.6844 16.5918 30.6885C16.8422 30.746 17.0966 30.8239 17.3592 30.943C17.626 31.0661 17.8969 31.2343 18.1677 31.4724C18.418 31.6899 18.6602 31.9689 18.89 32.3218C19.1157 32.6666 19.3332 33.0893 19.5343 33.6105C19.6041 33.7951 19.6779 33.9798 19.7559 34.1522C19.8298 34.3163 19.9036 34.4682 19.9857 34.6077C20.0514 34.7185 20.1252 34.8211 20.2032 34.9114C20.2771 34.9976 20.3633 35.0714 20.4535 35.133C20.868 35.412 21.3523 35.412 21.8571 35.2766C22.3988 35.133 22.9692 34.8334 23.5232 34.542L23.8105 34.3902C23.8844 34.3533 23.9664 34.3081 24.0608 34.263C24.2127 34.185 24.3645 34.1111 24.5081 34.0332C24.6436 33.9634 24.7831 33.8854 24.9308 33.7992C25.0745 33.7172 25.214 33.6351 25.3453 33.553C25.4808 33.4709 25.6203 33.3806 25.7721 33.278C26.0594 33.0893 26.2359 32.9703 26.3631 32.8841L26.7406 32.6296C26.7406 32.6296 26.7447 32.6255 26.7488 32.6255C28.5053 31.4354 30.0155 30.4177 32.3095 29.5518C32.5968 29.4451 32.8923 29.3384 33.196 29.2317C33.4956 29.1291 33.8033 29.0224 34.1193 28.9198C34.4394 28.8172 34.7349 28.7228 35.014 28.6407L35.0304 28.6366C35.3464 28.5422 35.6378 28.456 35.9004 28.3781C37.9113 27.8035 39.758 27.2659 41.3667 26.6421C42.9672 26.0183 44.3461 25.3084 45.4336 24.385C46.4842 23.4945 47.2845 22.3823 47.7892 20.9173C48.2981 19.4399 48.5074 17.5973 48.372 15.2704C48.3556 14.9954 48.3309 14.7205 48.3022 14.4496C48.2735 14.1788 48.2366 13.912 48.1914 13.6494C48.1504 13.399 48.1011 13.1528 48.0437 12.9066C47.9903 12.6644 47.9247 12.4264 47.8549 12.1966C47.6948 11.6631 47.502 11.1337 47.2722 10.6166C47.0423 10.0995 46.7797 9.59067 46.4842 9.09C46.1928 8.60164 45.8686 8.12149 45.5116 7.64544C45.1587 7.1735 44.7688 6.70977 44.3502 6.25424C44.3092 6.22551 44.2722 6.19268 44.2353 6.15575C44.1984 6.11881 44.1655 6.08188 44.1368 6.04084C43.6813 5.62225 43.2217 5.23649 42.7538 4.88356C42.2819 4.52652 41.7976 4.20232 41.3052 3.91095C40.8004 3.61137 40.2874 3.34462 39.7703 3.11891C39.2532 2.88909 38.7238 2.69621 38.1945 2.53616C37.9646 2.46229 37.7307 2.40073 37.4927 2.34738C37.2506 2.29403 37.0002 2.24479 36.7376 2.19965C36.479 2.1545 36.2123 2.11757 35.9414 2.08884C35.6706 2.06011 35.3956 2.03549 35.1166 2.01908C32.7897 1.87955 30.9512 2.08884 29.4738 2.60182C28.0087 3.10659 26.8966 3.90684 26.006 4.95743C25.0827 6.04905 24.3686 7.42384 23.7489 9.02844C23.1251 10.6371 22.5875 12.4839 22.013 14.4948C21.9268 14.8025 21.8365 15.1062 21.7504 15.3976C21.6683 15.6767 21.5739 15.968 21.4754 16.2799C21.3769 16.5795 21.2784 16.8791 21.1717 17.1787C21.065 17.4824 20.9542 17.786 20.8393 18.0897C19.9734 20.392 18.9515 21.8981 17.7655 23.6545L17.7573 23.6668C17.5685 23.9459 17.3757 24.2291 17.113 24.623C17.0268 24.7503 16.9407 24.8898 16.8504 25.0375C16.7642 25.1812 16.678 25.3248 16.5959 25.4643C16.5056 25.6244 16.4236 25.7721 16.3538 25.9034C16.2758 26.0512 16.202 26.1907 16.1322 26.3343C16.0542 26.4903 15.9557 26.675 15.8613 26.8596L15.8449 26.876Z" fill="#F7CB46"/>
</g>
<path fill-rule="evenodd" clip-rule="evenodd" d="M73.3791 19.0518C76.1989 19.8023 78.89 21.1049 81.2433 22.7936C88.1533 27.7523 90.2226 33.8689 89.9814 42.2477C89.8527 46.7347 88.8127 51.1037 87.3224 54.0896C75.7486 77.2427 28.4078 73.1203 24.4086 51.2913C24.1245 49.7367 24.1084 48.1231 24.1299 46.0968C24.162 43.47 24.2049 39.8997 25.84 37.7769C27.4964 35.6165 30.418 34.7588 34.0526 34.6408C38.025 34.9142 41.6971 33.6116 45.1708 30.9902C54.1126 24.2463 59.9558 15.4815 73.3791 19.0518ZM74.7568 43.8988C74.7568 46.1075 72.2158 47.8926 69.0798 47.8926C65.9437 47.8926 63.4027 46.1021 63.4027 43.8988C63.4027 41.6902 65.9437 39.9051 69.0798 39.9051C72.2105 39.9051 74.7568 41.6956 74.7568 43.8988ZM79.5225 35.3538C81.5114 36.9567 83.125 38.9241 84.0845 41.1166C86.722 47.1421 83.5163 52.5618 79.4957 56.9952C76.2686 60.0883 72.0818 62.1951 66.8872 63.2833C62.1323 64.2751 56.541 64.4145 50.0759 63.6639C45.9053 63.1815 42.3564 62.3077 39.3973 61.0533C35.9879 59.6059 30.5306 55.848 29.2548 52.2295C28.263 49.4097 29.764 47.0188 34.3207 46.9974C50.3064 47.2708 52.1827 33.0701 65.3165 31.1885C70.4093 30.4541 75.5556 32.1534 79.5225 35.3538Z" fill="#F7CB46"/>
<defs>
<clipPath id="clip0_1022_1624">
<rect width="50.3911" height="50.428" fill="white"/>
</clipPath>
</defs>
</svg>
