<svg width="89" height="89" viewBox="0 0 89 89" fill="none" xmlns="http://www.w3.org/2000/svg">
<g clip-path="url(#clip0_1023_391)">
<mask id="mask0_1023_391" style="mask-type:luminance" maskUnits="userSpaceOnUse" x="0" y="0" width="89" height="89">
<path d="M86 0H3C1.34315 0 0 1.34315 0 3V86C0 87.6569 1.34315 89 3 89H86C87.6569 89 89 87.6569 89 86V3C89 1.34315 87.6569 0 86 0Z" fill="white"/>
</mask>
<g mask="url(#mask0_1023_391)">
<path d="M86.229 50.0442C86.2168 47.0514 85.5052 44.103 84.1509 41.4342C82.7966 38.7654 80.8372 36.4501 78.429 34.6732C77.4212 33.932 76.2031 33.5316 74.952 33.5302C73.4196 33.5305 71.9492 34.1352 70.86 35.2132C70.66 35.0462 70.477 34.8622 70.27 34.7032C69.4966 34.1288 68.5912 33.7581 67.637 33.6252L68.247 26.9252C68.261 26.7652 68.268 26.6032 68.268 26.4412C68.2664 25.023 67.7024 23.6634 66.6996 22.6606C65.6968 21.6578 64.3372 21.0937 62.919 21.0922H62.56C61.1419 21.0937 59.7823 21.6578 58.7795 22.6606C57.7767 23.6634 57.2126 25.023 57.211 26.4412C57.211 26.6032 57.218 26.7642 57.233 26.9262L57.845 33.6572C56.964 33.8142 56.1301 34.1691 55.406 34.6952C55.159 34.8802 54.939 35.0952 54.706 35.2882C54.583 35.1612 54.453 35.0422 54.319 34.9272C54.5177 33.8457 54.4934 32.735 54.2477 31.6632C54.0019 30.5914 53.54 29.5811 52.89 28.6942C53.8066 27.4219 54.3434 25.9158 54.4381 24.3506C54.5329 22.7854 54.1816 21.2255 53.4251 19.852C52.6686 18.4786 51.538 17.3479 50.1645 16.5914C48.7911 15.8348 47.2312 15.4835 45.666 15.5782C45.2302 14.3357 44.5036 13.2155 43.5469 12.3109C42.5901 11.4064 41.431 10.7437 40.166 10.3782C39.346 9.33968 38.2861 8.51572 37.0775 7.97699C35.8689 7.43826 34.5476 7.20086 33.227 7.28516C32.7026 5.78842 31.7595 4.47373 30.5097 3.49734C29.26 2.52095 27.7562 1.92392 26.177 1.77722C24.5979 1.63051 23.0098 1.94029 21.6016 2.66974C20.1934 3.3992 19.0242 4.51765 18.233 5.89216C16.4473 5.96325 14.7317 6.6068 13.3397 7.72774C11.9478 8.84869 10.9533 10.3876 10.503 12.1172C8.39514 12.9092 6.57781 14.3233 5.2921 16.1719C4.00639 18.0206 3.31305 20.2164 3.30404 22.4682C3.30039 24.2701 3.73949 26.0454 4.58274 27.6379C5.42598 29.2304 6.64755 30.5914 8.14004 31.6012C7.42191 33.2457 7.25931 35.0795 7.67686 36.8248C8.09441 38.57 9.06936 40.1317 10.454 41.2732C10.2964 41.9034 10.2162 42.5505 10.215 43.2002C10.2179 45.2268 10.9617 47.1824 12.3062 48.6988C13.6508 50.2152 15.5033 51.1877 17.515 51.4332L20.566 59.9992C18.998 61.155 17.6654 62.5999 16.64 64.2562L9.39904 62.6472C9.1225 62.584 8.83969 62.5525 8.55604 62.5532C7.5297 62.555 6.54597 62.9637 5.82052 63.6898C5.09507 64.4158 4.6871 65.3998 4.68604 66.4262V66.9732C4.6912 67.3497 4.75185 67.7233 4.86604 68.0822H4.68604C3.58645 68.0822 2.5319 68.519 1.75437 69.2965C0.976849 70.074 0.540039 71.1286 0.540039 72.2282C0.540039 73.3277 0.976849 74.3823 1.75437 75.1598C2.5319 75.9373 3.58645 76.3742 4.68604 76.3742H4.86604C4.75161 76.7326 4.69062 77.1059 4.68504 77.4822V78.0292C4.6861 79.056 5.09448 80.0405 5.82058 80.7666C6.54668 81.4927 7.53118 81.9011 8.55804 81.9022C8.84063 81.9027 9.1224 81.8715 9.39804 81.8092L16.641 80.1992C17.9993 82.4073 19.9001 84.2311 22.1625 85.497C24.4249 86.7629 26.9736 87.4287 29.566 87.4312H29.891C30.6647 87.4308 31.4373 87.3716 32.202 87.2542L79.592 79.9682C81.2488 79.7183 82.7813 78.9422 83.9631 77.7545C85.1449 76.5667 85.9133 75.0304 86.1549 73.3724C86.3965 71.7144 86.0984 70.0227 85.3046 68.5471C84.5109 67.0715 83.2636 65.8904 81.747 65.1782C84.6265 61.7522 86.2127 57.4245 86.229 52.9492V50.0442ZM68.584 36.8992C70.6357 38.4879 72.2962 40.5255 73.4382 42.8555C74.5801 45.1856 75.1733 47.7463 75.172 50.3412V55.4182C75.1715 58.2391 74.4716 61.0159 73.135 63.5002L62.052 61.7952C61.5915 59.791 61.3567 57.7416 61.352 55.6852V50.0732C61.3633 48.6783 61.4807 47.2863 61.703 45.9092C62.042 45.9382 62.379 45.9682 62.734 45.9682C66.674 45.9682 69.644 44.1852 69.644 41.8222C69.5845 41.1053 69.3204 40.4206 68.8833 39.8493C68.4462 39.278 67.8544 38.8441 67.178 38.5992L67.378 36.3632C67.8159 36.4468 68.2286 36.6302 68.584 36.8992ZM62.554 23.8552H62.915C63.6 23.8562 64.2567 24.1288 64.741 24.6132C65.2254 25.0975 65.498 25.7542 65.499 26.4392C65.4995 26.5176 65.4959 26.5961 65.488 26.6742L64.233 40.4742L65.288 40.8132C66.499 41.2002 66.88 41.7132 66.88 41.8192C66.88 42.1632 65.41 43.2012 62.734 43.2012C60.058 43.2012 58.588 42.1632 58.588 41.8192C58.588 41.7102 58.969 41.2002 60.18 40.8112L61.235 40.4722L59.98 26.6722C59.973 26.5932 59.97 26.5142 59.97 26.4372C59.9716 25.7525 60.2444 25.0964 60.7287 24.6125C61.2131 24.1285 61.8694 23.8562 62.554 23.8552ZM58.09 36.4082L58.29 38.5992C57.6137 38.8441 57.0218 39.278 56.5847 39.8493C56.1476 40.4206 55.8836 41.1053 55.824 41.8222C55.824 43.3452 57.067 44.6222 58.997 45.3372C58.7375 46.9028 58.6008 48.4862 58.588 50.0732V55.6842C58.5893 57.5834 58.7688 59.4784 59.124 61.3442L50.976 60.0902C50.528 58.5725 50.2987 56.9986 50.295 55.4162V50.3402C50.3035 47.7307 50.9184 45.1589 52.0912 42.8278C53.2641 40.4967 54.9627 38.4702 57.053 36.9082C57.3643 36.678 57.7161 36.5084 58.09 36.4082ZM43.153 58.8872C42.3972 56.9988 42.0066 54.9842 42.002 52.9502V50.0432C42.0144 47.4824 42.625 44.9599 43.7852 42.677C44.9453 40.394 46.6229 38.4138 48.684 36.8942C49.2167 36.5049 49.8593 36.2948 50.519 36.2942C50.9216 36.294 51.3202 36.3735 51.6919 36.5279C52.0636 36.6824 52.4011 36.9088 52.685 37.1942C49.3906 40.7832 47.5526 45.4715 47.53 50.3432V55.4182C47.5343 56.8371 47.6946 58.2513 48.008 59.6352L43.153 58.8872ZM43.283 17.3612L43.535 18.7832L44.945 18.4682C46.1079 18.2062 47.3242 18.3279 48.4122 18.8149C49.5001 19.302 50.401 20.1282 50.9802 21.17C51.5594 22.2117 51.7857 23.4131 51.6253 24.5942C51.4648 25.7753 50.9262 26.8727 50.09 27.7222L49.139 28.6912L50.09 29.6602C51.1076 30.6903 51.6778 32.0802 51.677 33.5282C51.677 33.5692 51.669 33.6112 51.669 33.6542C50.8702 33.4835 50.0442 33.4857 49.2463 33.6606C48.4484 33.8355 47.6972 34.179 47.043 34.6682C44.5623 36.5065 42.5598 38.9141 41.204 41.6882C40.68 40.0575 40.133 38.4988 39.563 37.0122C40.3854 32.8866 42.5132 29.1351 45.632 26.3122L44.766 25.2372L43.902 24.1582C41.2082 26.5247 39.1375 29.5172 37.872 32.8722C36.2247 29.0212 34.2979 25.2959 32.107 21.7262L29.781 23.2262C31.4868 26.0144 33.0229 28.903 34.381 31.8762C31.4536 30.8964 28.3576 30.5222 25.281 30.7762L25.556 33.5262C27.635 33.3172 33.522 33.4182 36.273 36.2262C37.242 38.6072 38.197 41.2182 39.04 44.0152C36.0705 42.6288 32.8428 41.8817 29.566 41.8222V44.5862C29.631 44.5862 35.784 44.6272 39.426 47.5232C39.3075 48.3583 39.2457 49.2006 39.241 50.0442V52.9502C39.2452 54.8012 39.5218 56.6416 40.062 58.4122L32.202 57.2032C31.787 57.1392 31.369 57.0972 30.948 57.0662C30.0485 57.0674 29.1623 56.8488 28.3665 56.4294C27.5707 56.0099 26.8894 55.4024 26.3819 54.6597C25.8745 53.9169 25.5562 53.0614 25.4548 52.1676C25.3534 51.2738 25.4719 50.3687 25.8 49.5312L26.2 48.4742L25.242 47.8692C24.6174 47.4796 24.0773 46.9686 23.6538 46.3665C23.2303 45.7643 22.9319 45.0833 22.7765 44.3638C22.621 43.6442 22.6116 42.9007 22.7488 42.1775C22.8859 41.4542 23.1669 40.7658 23.575 40.1532L24.436 38.8592L23.051 38.1592C21.5642 37.4076 20.3386 36.2252 19.5342 34.7662C18.7299 33.3072 18.3843 31.6396 18.5425 29.9811C18.7007 28.3227 19.3554 26.7505 20.4211 25.4699C21.4868 24.1894 22.9139 23.26 24.516 22.8032L25.374 22.5572L25.503 21.6742C25.6976 20.3672 26.3528 19.1727 27.3505 18.3063C28.3482 17.4399 29.6227 16.9586 30.944 16.9492C30.9947 16.9517 31.0452 16.9577 31.095 16.9672C31.195 16.9812 31.29 16.9932 31.388 17.0002L32.379 17.0802L32.769 16.1652C33.2343 15.07 34.0411 14.1545 35.0691 13.5554C36.0971 12.9562 37.2913 12.7053 38.4735 12.8403C39.6558 12.9752 40.7627 13.4887 41.6293 14.3042C42.4958 15.1196 43.0756 16.1933 43.282 17.3652L43.283 17.3612ZM19.483 48.7332H18.509C17.6117 48.7399 16.7264 48.5265 15.9307 48.1115C15.135 47.6966 14.4532 47.0928 13.9451 46.3532C13.437 45.6135 13.118 44.7605 13.0162 43.8689C12.9144 42.9773 13.0328 42.0743 13.361 41.2392L13.761 40.1822L12.803 39.5772C12.1783 39.1877 11.6381 38.6768 11.2145 38.0747C10.7909 37.4726 10.4925 36.7915 10.3369 36.072C10.1814 35.3524 10.1719 34.6089 10.309 33.8856C10.4461 33.1623 10.727 32.4739 11.135 31.8612L11.996 30.5672L10.611 29.8672C9.12462 29.1154 7.8994 27.9329 7.09534 26.474C6.29128 25.0152 5.94574 23.3479 6.10383 21.6897C6.26191 20.0315 6.91629 18.4594 7.98152 17.1788C9.04675 15.8982 10.4733 14.9685 12.075 14.5112L12.933 14.2652L13.062 13.3822C13.2572 12.0751 13.9129 10.8808 14.9109 10.0144C15.9089 9.14808 17.1835 8.66674 18.505 8.65716C18.5589 8.65706 18.6127 8.66074 18.666 8.66816C18.76 8.68016 18.854 8.69316 18.951 8.70116L19.951 8.78416L20.342 7.86516C20.8094 6.77362 21.6164 5.86198 22.6433 5.26572C23.6701 4.66945 24.8618 4.42037 26.0415 4.55549C27.2212 4.69061 28.3258 5.20271 29.1912 6.01571C30.0566 6.82871 30.6366 7.89921 30.845 9.06816L31.097 10.4902L32.507 10.1762C33.5109 9.93345 34.5649 10.0032 35.528 10.3762C33.4791 10.9723 31.7396 12.3369 30.673 14.1852C28.8873 14.2562 27.1717 14.8998 25.7797 16.0207C24.3878 17.1417 23.3933 18.6806 22.943 20.4102C21.0425 21.116 19.373 22.3314 18.1173 23.9231C16.8616 25.5148 16.0682 27.4214 15.8241 29.434C15.5799 31.4466 15.8945 33.4876 16.7332 35.3333C17.5719 37.179 18.9024 38.7583 20.579 39.8982C19.8618 41.5425 19.6995 43.3756 20.1169 45.1203C20.5342 46.865 21.5084 48.4264 22.892 49.5682C22.7345 50.1977 22.6542 50.8442 22.653 51.4932C22.653 52.647 22.893 53.7881 23.3578 54.8442C23.8227 55.9002 24.5021 56.8479 25.353 57.6272C24.5394 57.8639 23.7473 58.169 22.985 58.5392L19.483 48.7332ZM7.45004 66.9732V66.4262C7.45336 66.2612 7.49287 66.0989 7.56578 65.9509C7.63869 65.8029 7.74322 65.6726 7.87199 65.5694C8.00075 65.4662 8.15061 65.3926 8.31097 65.3536C8.47134 65.3147 8.63829 65.3115 8.80004 65.3442L15.377 66.8062C15.217 67.2232 15.077 67.6482 14.95 68.0822H8.55904C8.265 68.0819 7.98307 67.965 7.77515 67.757C7.56723 67.5491 7.4503 67.2672 7.45004 66.9732ZM3.30404 72.2282C3.30457 71.8618 3.45034 71.5106 3.7094 71.2515C3.96846 70.9925 4.31967 70.8467 4.68604 70.8462H14.43C14.39 71.3022 14.361 71.7612 14.361 72.2282C14.361 72.6952 14.39 73.1542 14.431 73.6102H4.68604C4.31967 73.6096 3.96846 73.4639 3.7094 73.2048C3.45034 72.9457 3.30457 72.5945 3.30404 72.2282ZM8.79804 79.1122C8.63665 79.1425 8.4706 79.1376 8.31129 79.0978C8.15198 79.0579 8.00318 78.9841 7.87511 78.8813C7.74704 78.7785 7.64274 78.6492 7.56937 78.5023C7.49599 78.3553 7.45528 78.1943 7.45004 78.0302V77.4832C7.45057 77.1895 7.56747 76.9079 7.77515 76.7003C7.98282 76.4926 8.26434 76.3757 8.55804 76.3752H14.949C15.072 76.8092 15.217 77.2332 15.376 77.6512L8.79804 79.1122ZM83.466 72.2282C83.4711 73.4381 83.0402 74.6095 82.2522 75.5277C81.4642 76.4459 80.3718 77.0496 79.175 77.2282L31.784 84.5182C31.1576 84.6145 30.5248 84.663 29.891 84.6632H29.566C26.2865 84.6337 23.1512 83.3103 20.8425 80.9808C18.5338 78.6514 17.2386 75.5044 17.2386 72.2247C17.2386 68.9449 18.5338 65.798 20.8425 63.4685C23.1512 61.139 26.2865 59.8156 29.566 59.7862H29.891C30.5244 59.7866 31.1569 59.8347 31.783 59.9302L79.174 67.2202C80.3721 67.3993 81.4654 68.0042 82.2537 68.924C83.042 69.8438 83.4724 71.0168 83.466 72.2282ZM83.466 52.9492C83.4458 57.2232 81.7538 61.3196 78.752 64.3622L76.006 63.9392C77.276 61.2772 77.9361 58.3655 77.938 55.4162V50.3402C77.9233 45.4645 76.1126 40.7652 72.852 37.1402C73.4183 36.6007 74.1699 36.299 74.952 36.2972C75.612 36.2967 76.2548 36.5069 76.787 36.8972C78.8477 38.4166 80.5248 40.3966 81.6844 42.6792C82.8441 44.9618 83.4542 47.4839 83.466 50.0442V52.9492Z" fill="#F7CB46"/>
<path d="M28.1821 65.3184H30.9461V79.1394H28.1821V65.3184Z" fill="#F7CB46"/>
<path d="M39.238 65.3184H42.002V79.1394H39.238V65.3184Z" fill="#F7CB46"/>
<path d="M50.2949 65.3184H53.0589V79.1394H50.2949V65.3184Z" fill="#F7CB46"/>
<path d="M61.3511 68.082H64.1151V76.374H61.3511V68.082Z" fill="#F7CB46"/>
<path d="M72.408 69.4639H75.172V74.9919H72.408V69.4639Z" fill="#F7CB46"/>
</g>
</g>
<defs>
<clipPath id="clip0_1023_391">
<rect width="89" height="89" fill="white"/>
</clipPath>
</defs>
</svg>
